# xmcd CD database file
#
# Track frame offsets:
#	150
#	17602
#	32682
#	42807
#	54575
#	68867
#	84560
#	99565
#	113185
#	128430
#	141722
#	156920
#	170417
#	181792
#	198132
#	211775
#	223700
#	239455
#	253117
#	267850
#
# Disc length: 3770 seconds
#
# Revision: 1
# Processed by: cddbd v1.5.1PL2 Copyright (c) Steve Scherf et al.
# Submitted via: CDex 1.51
#
DISCID=180eb814
DTITLE=Tommy Dorsey - Music Maestro Please Vol. 1 1935-1939
DYEAR=2001
DGENRE=Jazz
TTITLE0=Stomp It Off
TTITLE1=Weary Blues
TTITLE2=Jamboree
TTITLE3=Maple Leaf Rag
TTITLE4=Chinatown, My Chinatown
TTITLE5=For Sentimental Reasons
TTITLE6=Little White Lies
TTITLE7=Tears In My Heart
TTITLE8=The Milkman's Matinée
TTITLE9=Royal Garden Blues
TTITLE10=Night Glow
TTITLE11=Music, Maestro, Please
TTITLE12=The Sheik Of Araby
TTITLE13=Black Eyes
TTITLE14=Everybody's Doin't It
TTITLE15=Night And Day
TTITLE16=Washboard Blues
TTITLE17=Nola
TTITLE18=Boogie Woogie
TTITLE19=Night In Sudan
EXTD=YEAR: 2001
EXTT0=
EXTT1=
EXTT2=
EXTT3=
EXTT4=
EXTT5=
EXTT6=
EXTT7=
EXTT8=
EXTT9=
EXTT10=
EXTT11=
EXTT12=
EXTT13=
EXTT14=
EXTT15=
EXTT16=
EXTT17=
EXTT18=
EXTT19=
PLAYORDER=
